<svg width="20" height="20" viewBox="0 0 20 20" fill="none" xmlns="http://www.w3.org/2000/svg">
<path d="M3.92057 0C1.95016 0 0.333332 1.67259 0.333332 3.71094V16.2891C0.333332 18.3274 1.95016 20 3.92057 20H16.0794C18.0498 20 19.6667 18.3274 19.6667 16.2891V3.71094C19.6667 1.67259 18.0498 0 16.0794 0H3.92057ZM3.92057 1.81818H16.0794C17.099 1.81818 17.9091 2.65625 17.9091 3.71094V16.2891C17.9091 17.3437 17.099 18.1818 16.0794 18.1818H3.92057C2.90104 18.1818 2.09091 17.3437 2.09091 16.2891V3.71094C2.09091 2.65625 2.90104 1.81818 3.92057 1.81818ZM9.75284 6.57315C9.10748 6.56605 8.55824 6.57315 8.24929 6.7294C8.04332 6.83239 7.88542 7.06676 7.98153 7.07741C8.10168 7.09517 8.37287 7.15554 8.51705 7.35795C8.70241 7.61719 8.69555 8.20313 8.69555 8.20313C8.69555 8.20313 8.79853 9.81534 8.44496 10.0178C8.20123 10.1563 7.86825 9.87571 7.14737 8.59375C6.78007 7.93324 6.50201 7.20526 6.50201 7.20526C6.50201 7.20526 6.45052 7.07031 6.3544 6.99929C6.23769 6.91051 6.07635 6.8821 6.07635 6.8821L4.35653 6.89276C4.35653 6.89276 4.09908 6.90341 4.00639 7.01705C3.92057 7.12358 3.99953 7.3331 3.99953 7.3331C3.99953 7.3331 5.34517 10.5895 6.86932 12.2301C8.26645 13.7358 9.85239 13.6364 9.85239 13.6364H10.5733C10.5733 13.6364 10.7895 13.6115 10.8994 13.4908C11.0024 13.3771 10.9989 13.1641 10.9989 13.1641C10.9989 13.1641 10.9852 12.1662 11.4315 12.017C11.8743 11.875 12.4373 12.983 13.038 13.4091C13.4946 13.7322 13.8413 13.6612 13.8413 13.6612L15.4478 13.6364C15.4478 13.6364 16.2854 13.5831 15.8872 12.8977C15.8563 12.8445 15.6572 12.3935 14.696 11.4702C13.6868 10.5043 13.8207 10.6605 15.0359 8.98793C15.7739 7.96875 16.0691 7.3473 15.9764 7.07741C15.8872 6.82528 15.3448 6.89276 15.3448 6.89276L13.5357 6.90341C13.5357 6.90341 13.4019 6.88565 13.3023 6.94602C13.2062 7.00639 13.1444 7.14844 13.1444 7.14844C13.1444 7.14844 12.8561 7.93679 12.475 8.60795C11.6718 10.0213 11.3456 10.0994 11.2152 10.0107C10.9097 9.80469 10.9852 9.18679 10.9852 8.75C10.9852 7.37571 11.1877 6.80753 10.5939 6.65838C10.3982 6.60866 10.254 6.5767 9.75284 6.57315Z" fill="white"/>
</svg>
