<svg width="22" height="20" viewBox="0 0 22 20" fill="none" xmlns="http://www.w3.org/2000/svg">
<path d="M5.51639 17.1424C5.73636 17.0791 5.9749 17.1085 6.16989 17.2228C7.60605 18.0652 9.2663 18.5185 11 18.5185C16.0291 18.5185 20.106 14.7046 20.106 10C20.106 5.29535 16.0291 1.48148 11 1.48148C5.9709 1.48148 1.894 5.29535 1.894 10C1.894 11.6695 2.40753 13.2659 3.35844 14.6348C3.48344 14.8148 3.51887 15.0366 3.45554 15.2429C3.33458 15.637 3.16814 16.192 2.96788 16.8677C2.95924 16.8968 2.95924 16.8968 2.95061 16.9259C2.85119 17.2615 2.74755 17.6128 2.64265 17.9696L5.51639 17.1424ZM1.73095 19.7821C1.13444 19.9538 0.569957 19.4425 0.734158 18.8792C0.7449 18.8423 0.7449 18.8423 0.79314 18.6772C0.840052 18.5166 0.892395 18.3377 0.948858 18.1451C1.11019 17.5946 1.27223 17.0441 1.42449 16.5302C1.43315 16.501 1.43315 16.501 1.44181 16.4718C1.59443 15.9569 1.72759 15.5114 1.83648 15.152C0.844183 13.6108 0.310349 11.8416 0.310349 10C0.310349 4.47715 5.09627 0 11 0C16.9037 0 21.6897 4.47715 21.6897 10C21.6897 15.5228 16.9037 20 11 20C9.09195 20 7.25614 19.5309 5.64367 18.6558L1.73095 19.7821ZM12.7496 11.8219C12.8548 11.7234 12.9692 11.6046 13.0889 11.4702C13.2384 11.3024 13.3877 11.1202 13.5285 10.9378C13.6127 10.8287 13.6745 10.745 13.7064 10.7002C13.7353 10.6596 13.7685 10.6218 13.8054 10.5873C13.8734 10.5237 13.963 10.4608 14.0771 10.4074C14.432 10.2414 14.8704 10.2414 15.3133 10.4486C15.4602 10.5173 17.1646 11.554 17.9171 11.9451C18.2099 12.0972 18.3687 12.4053 18.3136 12.7144C18.1348 13.718 17.8242 14.4785 17.1274 15.1303C16.1627 16.0328 14.6864 16.3867 12.6642 16.1029C8.92092 15.5777 5.70126 12.5089 4.32226 9.1548C3.72243 7.69586 4.01623 6.26057 4.84721 4.96496C5.1552 4.48476 5.46596 4.12944 5.68914 3.92066C5.79968 3.81725 5.94047 3.74677 6.09376 3.71809C6.1621 3.7053 6.26952 3.68757 6.40101 3.67C6.53911 3.65154 6.67559 3.63735 6.80735 3.62914C7.34618 3.59553 7.68701 3.63096 7.99669 3.92066C8.38803 4.28675 9.61431 6.49284 9.61431 7.03704C9.61431 7.60877 9.34623 8.09385 8.67989 8.76433C8.86869 9.23929 9.52917 9.96319 10.4884 10.701C10.9861 11.0838 11.5282 11.4442 12.0021 11.7137C12.2135 11.8339 12.4002 11.9294 12.5428 11.9914C12.6054 11.9506 12.6739 11.8927 12.7496 11.8219ZM6.20518 5.72718C5.6024 6.66699 5.4009 7.65139 5.80035 8.62298C6.99384 11.5258 9.80303 14.2034 12.8991 14.6378C14.4576 14.8565 15.4295 14.6235 16.0076 14.0827C16.3167 13.7936 16.5096 13.4355 16.6412 12.9645C15.9609 12.5831 15.1124 12.0744 14.7642 11.8671C14.6177 12.0546 14.4634 12.2414 14.3055 12.4187C14.1571 12.5852 14.0116 12.7364 13.8694 12.8695C13.4279 13.2825 13.0494 13.5185 12.5837 13.5185C12.0015 13.5185 10.6837 12.7692 9.48258 11.8453C7.98198 10.6911 7.04087 9.56501 7.04087 8.51852C7.04087 8.32206 7.1243 8.13365 7.27279 7.99474C7.87988 7.42681 8.03065 7.19174 8.03065 7.03704C7.99676 6.99681 7.95847 6.90632 7.90778 6.79738C7.80738 6.58162 7.66485 6.30718 7.50135 6.01304C7.35012 5.74098 7.18917 5.46703 7.05317 5.24933C7.02011 5.19641 6.9892 5.14791 6.96107 5.10477C6.94561 5.10544 6.92945 5.10629 6.91269 5.10734C6.83287 5.11231 6.7449 5.12114 6.65374 5.13282C6.4898 5.32015 6.3425 5.51308 6.20518 5.72718Z" fill="white"/>
</svg>
